<?xml version="1.0" encoding="UTF-8"?>
<svg xmlns="http://www.w3.org/2000/svg" xmlns:xlink="http://www.w3.org/1999/xlink" width="0" height="0">
    <symbol id="add_circle" width="currentWidth" height="currentHeight" viewBox="0 0 48 48" fill="currentColor">
        <g>
            <path id="Vector"
                  d="M16 24H32M24 32V16M24 44C35 44 44 35 44 24C44 13 35 4.00003 24 4.00003C13 4.00003 4 13 4 24C4 35 13 44 24 44Z"
                  stroke="currentStroke" stroke-width="2" stroke-linecap="round" stroke-linejoin="round"/>
        </g>
    </symbol>

    <symbol id="arrow_circle_down" width="currentWidth" height="currentHeight" viewBox="0 0 24 24" fill="currentColor">
        <path d="M12 8.5V14.5M12 22C17.523 22 22 17.523 22 12C22 6.477 17.523 2 12 2C6.477 2 2 6.477 2 12C2 17.523 6.477 22 12 22Z"
              stroke="currentStroke" stroke-width="1.5" stroke-linecap="round" stroke-linejoin="round"/>
        <path d="M9 12.5L12 15.5L15 12.5" stroke="currentStroke" stroke-width="1.5" stroke-linecap="round"
              stroke-linejoin="round"/>
    </symbol>

    <symbol id="arrow_circle_left" width="currentWidth" height="currentHeight" viewBox="0 0 36 36" fill="currentColor">
        <g>
            <path id="Vector"
                  d="M18 33C26.2845 33 33 26.2845 33 18C33 9.7155 26.2845 3 18 3C9.7155 3 3 9.7155 3 18C3 26.2845 9.7155 33 18 33Z"
                  stroke="currentStroke" stroke-width="2" stroke-miterlimit="10" stroke-linecap="round"
                  stroke-linejoin="round"/>
            <path id="Vector_2" d="M19.8904 23.295L14.6104 18L19.8904 12.705" stroke="currentStroke" stroke-width="2"
                  stroke-linecap="round" stroke-linejoin="round"/>
        </g>
    </symbol>

    <symbol id="arrow_circle_right" width="currentWidth" height="currentHeight" viewBox="0 0 36 36" fill="currentColor">
        <g>
            <path id="Vector"
                  d="M18 3C9.7155 3 3 9.7155 3 18C3 26.2845 9.7155 33 18 33C26.2845 33 33 26.2845 33 18C33 9.7155 26.2845 3 18 3Z"
                  stroke="currentStroke" stroke-width="2" stroke-miterlimit="10" stroke-linecap="round"
                  stroke-linejoin="round"/>
            <path id="Vector_2" d="M16.1096 12.705L21.3896 18L16.1096 23.295" stroke="currentStroke" stroke-width="2"
                  stroke-linecap="round" stroke-linejoin="round"/>
        </g>
    </symbol>

    <symbol id="arrow_circle_up" width="currentWidth" height="currentHeight" viewBox="0 0 68 68" fill="currentColor">
        <path d="M33.9998 62.3334C49.6483 62.3334 62.3332 49.6486 62.3332 34.0001C62.3332 18.3516 49.6483 5.66675 33.9998 5.66675C18.3513 5.66675 5.6665 18.3516 5.6665 34.0001C5.6665 49.6486 18.3513 62.3334 33.9998 62.3334ZM33.9998 43.9168V26.9167V43.9168Z"/>
        <path d="M33.9998 43.9168V26.9167M33.9998 62.3334C49.6483 62.3334 62.3332 49.6486 62.3332 34.0001C62.3332 18.3516 49.6483 5.66675 33.9998 5.66675C18.3513 5.66675 5.6665 18.3516 5.6665 34.0001C5.6665 49.6486 18.3513 62.3334 33.9998 62.3334Z"
              stroke="currentStroke" stroke-width="2.5" stroke-linecap="round" stroke-linejoin="round"/>
        <path d="M25.5 33.5L34 25L42.5 33.5" stroke="currentStroke" stroke-width="2.5" stroke-linecap="round"
              stroke-linejoin="round"/>
    </symbol>

    <symbol id="arrow_left" width="currentWidth" height="currentHeight" viewBox="0 0 24 24" fill="currentColor">
        <g>
            <path id="Vector"
                  d="M15.0898 4.07992L8.56984 10.5999C7.79984 11.3699 7.79984 12.6299 8.56984 13.3999L15.0898 19.9199"
                  stroke="currentStroke" stroke-width="2" stroke-miterlimit="10" stroke-linecap="round"
                  stroke-linejoin="round"/>
        </g>
    </symbol>

    <symbol id="arrow_right" width="currentWidth" height="currentHeight" viewBox="0 0 24 24" fill="currentColor">
        <g>
            <path id="Vector"
                  d="M8.91016 19.9201L15.4302 13.4001C16.2002 12.6301 16.2002 11.3701 15.4302 10.6001L8.91016 4.08008"
                  stroke="currentStroke" stroke-width="2" stroke-miterlimit="10" stroke-linecap="round"
                  stroke-linejoin="round"/>
        </g>
    </symbol>

    <symbol id="arrow_up" width="currentWidth" height="currentHeight" viewBox="0 0 16 16" fill="currentColor">
        <g>
            <path id="Vector"
                  d="M13.2788 10.0601L8.93208 5.71339C8.41875 5.20006 7.57875 5.20006 7.06542 5.71339L2.71875 10.0601"
                  stroke="currentStroke" stroke-width="2" stroke-miterlimit="10" stroke-linecap="round"
                  stroke-linejoin="round"/>
        </g>
    </symbol>

    <symbol id="camera" width="currentWidth" height="currentHeight" viewBox="0 0 24 24" fill="currentColor">
        <g>
            <path id="Vector"
                  d="M10.5002 8H13.5002M6.76017 22H17.2402C20.0002 22 21.1002 20.31 21.2302 18.25L21.7502 9.99C21.7826 9.47783 21.7096 8.96446 21.5357 8.48161C21.3619 7.99876 21.0909 7.5567 20.7394 7.18275C20.3879 6.80879 19.9635 6.51089 19.4924 6.30746C19.0212 6.10403 18.5134 5.99939 18.0002 6C17.3902 6 16.8302 5.65 16.5502 5.11L15.8302 3.66C15.3702 2.75 14.1702 2 13.1502 2H10.8602C9.83017 2 8.63017 2.75 8.17017 3.66L7.45017 5.11C7.17017 5.65 6.61017 6 6.00017 6C3.83017 6 2.11017 7.83 2.25017 9.99L2.77017 18.25C2.89017 20.31 4.00017 22 6.76017 22Z"
                  stroke="currentStroke" stroke-width="1.5" stroke-linecap="round" stroke-linejoin="round"/>
            <path id="Vector_2"
                  d="M12 18C13.79 18 15.25 16.54 15.25 14.75C15.25 12.96 13.79 11.5 12 11.5C10.21 11.5 8.75 12.96 8.75 14.75C8.75 16.54 10.21 18 12 18Z"
                  stroke="currentStroke" stroke-width="1.5" stroke-linecap="round" stroke-linejoin="round"/>
        </g>
    </symbol>

    <symbol id="close_circle" width="currentWidth" height="currentHeight" viewBox="0 0 32 32" fill="currentColor">
        <g>
            <path id="Vector"
                  d="M12.228 19.7734L19.7746 12.2267M19.7746 19.7734L12.228 12.2267M16.0013 29.3334C23.3346 29.3334 29.3346 23.3334 29.3346 16C29.3346 8.66669 23.3346 2.66669 16.0013 2.66669C8.66797 2.66669 2.66797 8.66669 2.66797 16C2.66797 23.3334 8.66797 29.3334 16.0013 29.3334Z"
                  stroke="currentStroke" stroke-width="2" stroke-linecap="round" stroke-linejoin="round"/>
        </g>
    </symbol>

    <symbol id="comment" width="currentWidth" height="currentHeight" viewBox="0 0 20 20" fill="currentColor">
        <g clip-path="url(#clip0_76_22)">
            <path d="M7.08317 15.8334H6.6665C3.33317 15.8334 1.6665 15.0001 1.6665 10.8334V6.66675C1.6665 3.33341 3.33317 1.66675 6.6665 1.66675H13.3332C16.6665 1.66675 18.3332 3.33341 18.3332 6.66675V10.8334C18.3332 14.1667 16.6665 15.8334 13.3332 15.8334H12.9165C12.6582 15.8334 12.4082 15.9584 12.2498 16.1667L10.9998 17.8334C10.4498 18.5667 9.54984 18.5667 8.99984 17.8334L7.74984 16.1667C7.6165 15.9834 7.30817 15.8334 7.08317 15.8334Z"
                  stroke="currentStroke" stroke-width="1.5" stroke-miterlimit="10" stroke-linecap="round"
                  stroke-linejoin="round"/>
            <path d="M13.3301 9.16675H13.3384M9.99593 9.16675H10.0043M6.6626 9.16675H6.66926" stroke="currentStroke"
                  stroke-width="2" stroke-linecap="round" stroke-linejoin="round"/>
        </g>
        <defs>
            <clipPath>
                <rect width="currentWidth" height="currentHeight" fill="currentColor"/>
            </clipPath>
        </defs>
    </symbol>

    <symbol id="edit" width="currentWidth" height="currentHeight" viewBox="0 0 24 24" fill="currentColor">
        <g>
            <path d="M11 2H9C4 2 2 4 2 9V15C2 20 4 22 9 22H15C20 22 22 20 22 15V13" stroke="currentStroke" stroke-width="1.5" stroke-linecap="round" stroke-linejoin="round"/>
            <path d="M16.0399 3.02001L8.15988 10.9C7.85988 11.2 7.55988 11.79 7.49988 12.22L7.06988 15.23C6.90988 16.32 7.67988 17.08 8.76988 16.93L11.7799 16.5C12.1999 16.44 12.7899 16.14 13.0999 15.84L20.9799 7.96001C22.3399 6.60001 22.9799 5.02001 20.9799 3.02001C18.9799 1.02001 17.3999 1.66001 16.0399 3.02001Z" stroke="currentStroke" stroke-width="1.5" stroke-miterlimit="10" stroke-linecap="round" stroke-linejoin="round"/>
            <path d="M14.9102 4.15002C15.2417 5.32749 15.8701 6.40009 16.7351 7.26507C17.6001 8.13005 18.6727 8.75843 19.8502 9.09002" stroke="currentStroke" stroke-width="1.5" stroke-miterlimit="10" stroke-linecap="round" stroke-linejoin="round"/>
        </g>
    </symbol>

    <symbol id="email" width="currentWidth" height="currentHeight" viewBox="0 0 24 24" fill="currentColor">
        <g>
            <path id="Vector"
                  d="M23.5453 8.94375C23.7281 8.79844 24 8.93437 24 9.16406V18.75C24 19.9922 22.9922 21 21.75 21H2.25C1.00781 21 0 19.9922 0 18.75V9.16875C0 8.93438 0.267187 8.80312 0.454687 8.94844C1.50469 9.76406 2.89688 10.8 7.67813 14.2734C8.66719 14.9953 10.3359 16.5141 12 16.5047C13.6734 16.5188 15.375 14.9672 16.3266 14.2734C21.1078 10.8 22.4953 9.75938 23.5453 8.94375ZM12 15C13.0875 15.0188 14.6531 13.6313 15.4406 13.0594C21.6609 8.54531 22.1344 8.15156 23.5687 7.02656C23.8406 6.81562 24 6.4875 24 6.14062V5.25C24 4.00781 22.9922 3 21.75 3H2.25C1.00781 3 0 4.00781 0 5.25V6.14062C0 6.4875 0.159375 6.81094 0.43125 7.02656C1.86563 8.14687 2.33906 8.54531 8.55938 13.0594C9.34688 13.6313 10.9125 15.0188 12 15Z"/>
        </g>
    </symbol>

    <symbol id="empty" width="currentWidth" height="currentHeight" viewBox="0 0 64 64" fill="currentColor">
        <g>
            <path id="Vector"
                  d="M19.3861 34.6933C17.9648 33.9724 16.3932 33.5977 14.7995 33.6C2.31945 34.48 2.31945 52.64 14.7995 53.52H44.3728C47.9728 53.5467 51.4395 52.2133 54.0795 49.7867C62.8528 42.1333 58.1595 26.7467 46.6128 25.28C42.4528 0.293336 6.37278 9.78667 14.9328 33.6"
                  stroke="currentStroke" stroke-width="2" stroke-miterlimit="10" stroke-linecap="round"
                  stroke-linejoin="round"/>
            <path id="Vector_2" d="M42.2676 26.4533C43.6542 25.76 45.1742 25.3867 46.7209 25.36" stroke="currentStroke"
                  stroke-width="2" stroke-miterlimit="10" stroke-linecap="round" stroke-linejoin="round"/>
        </g>
    </symbol>

    <symbol id="full_arrow_left" width="currentWidth" height="currentHeight" viewBox="0 0 32 32" fill="currentColor">
        <g>
            <path id="Vector" d="M12.7587 24.0934L4.66537 16L12.7587 7.90672M27.332 16L4.89203 16"
                  stroke="currentStroke" stroke-width="2" stroke-miterlimit="10" stroke-linecap="round"
                  stroke-linejoin="round"/>
        </g>
    </symbol>

    <symbol id="full_arrow_right" width="currentWidth" height="currentHeight" viewBox="0 0 16 16" fill="currentColor">
        <g>
            <path id="Vector" d="M9.61967 3.95337L13.6663 8.00004L9.61967 12.0467M2.33301 8.00004H13.553"
                  stroke="currentStroke" stroke-width="1.5" stroke-miterlimit="10" stroke-linecap="round"
                  stroke-linejoin="round"/>
        </g>
    </symbol>

    <symbol id="github" width="currentWidth" height="currentHeight" viewBox="0 0 16 16" fill="currentColor">
        <g clip-path="url(#clip0_101_197)">
            <path id="Vector"
                  d="M5.43437 12.4187C5.43437 12.4812 5.3625 12.5312 5.27187 12.5312C5.16875 12.5406 5.09688 12.4906 5.09688 12.4187C5.09688 12.3562 5.16875 12.3062 5.25938 12.3062C5.35313 12.2969 5.43437 12.3469 5.43437 12.4187ZM4.4625 12.2781C4.44063 12.3406 4.50313 12.4125 4.59688 12.4312C4.67813 12.4625 4.77187 12.4312 4.79063 12.3687C4.80938 12.3062 4.75 12.2344 4.65625 12.2063C4.575 12.1844 4.48438 12.2156 4.4625 12.2781ZM5.84375 12.225C5.75313 12.2469 5.69062 12.3063 5.7 12.3781C5.70937 12.4406 5.79063 12.4813 5.88438 12.4594C5.975 12.4375 6.0375 12.3781 6.02812 12.3156C6.01875 12.2563 5.93437 12.2156 5.84375 12.225ZM7.9 0.25C3.56563 0.25 0.25 3.54063 0.25 7.875C0.25 11.3406 2.43125 14.3063 5.54688 15.35C5.94688 15.4219 6.0875 15.175 6.0875 14.9719C6.0875 14.7781 6.07812 13.7094 6.07812 13.0531C6.07812 13.0531 3.89062 13.5219 3.43125 12.1219C3.43125 12.1219 3.075 11.2125 2.5625 10.9781C2.5625 10.9781 1.84687 10.4875 2.6125 10.4969C2.6125 10.4969 3.39062 10.5594 3.81875 11.3031C4.50312 12.5094 5.65 12.1625 6.09688 11.9563C6.16875 11.4563 6.37188 11.1094 6.59688 10.9031C4.85 10.7094 3.0875 10.4562 3.0875 7.45C3.0875 6.59062 3.325 6.15938 3.825 5.60938C3.74375 5.40625 3.47813 4.56875 3.90625 3.4875C4.55937 3.28437 6.0625 4.33125 6.0625 4.33125C6.6875 4.15625 7.35938 4.06563 8.025 4.06563C8.69063 4.06563 9.3625 4.15625 9.9875 4.33125C9.9875 4.33125 11.4906 3.28125 12.1438 3.4875C12.5719 4.57188 12.3063 5.40625 12.225 5.60938C12.725 6.1625 13.0312 6.59375 13.0312 7.45C13.0312 10.4656 11.1906 10.7063 9.44375 10.9031C9.73125 11.15 9.975 11.6187 9.975 12.3531C9.975 13.4062 9.96562 14.7094 9.96562 14.9656C9.96562 15.1687 10.1094 15.4156 10.5063 15.3438C13.6313 14.3062 15.75 11.3406 15.75 7.875C15.75 3.54063 12.2344 0.25 7.9 0.25ZM3.2875 11.0281C3.24687 11.0594 3.25625 11.1313 3.30938 11.1906C3.35938 11.2406 3.43125 11.2625 3.47187 11.2219C3.5125 11.1906 3.50312 11.1187 3.45 11.0594C3.4 11.0094 3.32812 10.9875 3.2875 11.0281ZM2.95 10.775C2.92813 10.8156 2.95937 10.8656 3.02187 10.8969C3.07187 10.9281 3.13438 10.9187 3.15625 10.875C3.17812 10.8344 3.14687 10.7844 3.08437 10.7531C3.02187 10.7344 2.97187 10.7437 2.95 10.775ZM3.9625 11.8875C3.9125 11.9281 3.93125 12.0219 4.00312 12.0813C4.075 12.1531 4.16562 12.1625 4.20625 12.1125C4.24688 12.0719 4.22813 11.9781 4.16563 11.9187C4.09688 11.8469 4.00313 11.8375 3.9625 11.8875ZM3.60625 11.4281C3.55625 11.4594 3.55625 11.5406 3.60625 11.6125C3.65625 11.6844 3.74062 11.7156 3.78125 11.6844C3.83125 11.6438 3.83125 11.5625 3.78125 11.4906C3.7375 11.4188 3.65625 11.3875 3.60625 11.4281Z"/>
        </g>
        <defs>
            <clipPath id="clip0_101_197">
                <rect width="currentWidth" height="currentHeight" fill="currentColor"/>
            </clipPath>
        </defs>
    </symbol>

    <symbol id="instagram" width="currentWidth" height="currentHeight" viewBox="0 0 24 24" fill="currentColor">
        <g>
            <path id="Vector"
                  d="M12.0048 6.60928C9.02354 6.60928 6.61885 9.01396 6.61885 11.9952C6.61885 14.9765 9.02354 17.3812 12.0048 17.3812C14.986 17.3812 17.3907 14.9765 17.3907 11.9952C17.3907 9.01396 14.986 6.60928 12.0048 6.60928ZM12.0048 15.4968C10.0782 15.4968 8.50322 13.9265 8.50322 11.9952C8.50322 10.064 10.0735 8.49365 12.0048 8.49365C13.936 8.49365 15.5063 10.064 15.5063 11.9952C15.5063 13.9265 13.9313 15.4968 12.0048 15.4968ZM18.8673 6.38896C18.8673 7.0874 18.3048 7.64522 17.611 7.64522C16.9126 7.64522 16.3548 7.08271 16.3548 6.38896C16.3548 5.69521 16.9173 5.13271 17.611 5.13271C18.3048 5.13271 18.8673 5.69521 18.8673 6.38896ZM22.4345 7.66397C22.3548 5.98115 21.9704 4.49053 20.7376 3.2624C19.5095 2.03428 18.0188 1.6499 16.336 1.56553C14.6017 1.46709 9.40322 1.46709 7.66885 1.56553C5.99072 1.64521 4.5001 2.02959 3.26729 3.25771C2.03447 4.48584 1.65479 5.97646 1.57041 7.65928C1.47197 9.39365 1.47197 14.5921 1.57041 16.3265C1.6501 18.0093 2.03447 19.4999 3.26729 20.728C4.5001 21.9562 5.98604 22.3405 7.66885 22.4249C9.40322 22.5233 14.6017 22.5233 16.336 22.4249C18.0188 22.3452 19.5095 21.9608 20.7376 20.728C21.9657 19.4999 22.3501 18.0093 22.4345 16.3265C22.5329 14.5921 22.5329 9.39834 22.4345 7.66397ZM20.1938 18.1874C19.8282 19.1062 19.1204 19.814 18.197 20.1843C16.8142 20.7327 13.5329 20.6062 12.0048 20.6062C10.4767 20.6062 7.19072 20.728 5.8126 20.1843C4.89385 19.8187 4.18604 19.1108 3.81572 18.1874C3.26729 16.8046 3.39385 13.5233 3.39385 11.9952C3.39385 10.4671 3.27197 7.18115 3.81572 5.80303C4.18135 4.88428 4.88916 4.17646 5.8126 3.80615C7.19541 3.25771 10.4767 3.38428 12.0048 3.38428C13.5329 3.38428 16.8188 3.2624 18.197 3.80615C19.1157 4.17178 19.8235 4.87959 20.1938 5.80303C20.7423 7.18584 20.6157 10.4671 20.6157 11.9952C20.6157 13.5233 20.7423 16.8093 20.1938 18.1874Z"/>
        </g>
    </symbol>

    <symbol id="like" width="currentWidth" height="currentHeight" viewBox="0 0 20 20" fill="currentColor">
        <path d="M10.5165 17.3416C10.2332 17.4416 9.7665 17.4416 9.48317 17.3416C7.0665 16.5166 1.6665 13.0749 1.6665 7.24159C1.6665 4.66659 3.7415 2.58325 6.29984 2.58325C7.8165 2.58325 9.15817 3.31659 9.99984 4.44992C10.428 3.87148 10.9857 3.40136 11.6282 3.07721C12.2707 2.75305 12.9802 2.58388 13.6998 2.58325C16.2582 2.58325 18.3332 4.66659 18.3332 7.24159C18.3332 13.0749 12.9332 16.5166 10.5165 17.3416Z"
              stroke="currentStroke" stroke-width="1.5" stroke-linecap="round" stroke-linejoin="round"/>
    </symbol>

    <symbol id="line" width="currentWidth" height="currentHeight" viewBox="0 0 2 40" fill="currentColor">
        <path d="M1 1L0.999998 39" stroke="currentStroke" stroke-width="2" stroke-linecap="round"/>
    </symbol>

    <symbol id="slash" width="currentWidth" height="currentHeight" viewBox="0 0 12 40" fill="currentColor">
        <path d="M10.918 1.6474L1.08285 38.3526" stroke="currentStroke" stroke-width="2" stroke-linecap="round"/>
    </symbol>

    <symbol id="lines" width="currentWidth" height="currentHeight" viewBox="0 0 36 36" fill="currentColor">
        <g>
            <line id="Line 30" x1="7" y1="1" x2="7" y2="17" stroke="currentStroke" stroke-width="2"
                  stroke-linecap="round"/>
            <line id="Line 31" x1="19" y1="29" x2="35" y2="29" stroke="currentStroke" stroke-width="2"
                  stroke-linecap="round"/>
            <circle id="Ellipse 25" cx="7" cy="29" r="6.5" stroke="currentStroke"/>
        </g>
    </symbol>

    <symbol id="more_circle" width="currentWidth" height="currentHeight" viewBox="0 0 28 28" fill="currentColor">
        <g>
            <path id="Vector"
                  d="M13.9997 25.6666C20.4163 25.6666 25.6663 20.4166 25.6663 13.9999C25.6663 7.58325 20.4163 2.33325 13.9997 2.33325C7.58301 2.33325 2.33301 7.58325 2.33301 13.9999C2.33301 20.4166 7.58301 25.6666 13.9997 25.6666Z"
                  stroke="currentStroke" stroke-width="1.5" stroke-linecap="round" stroke-linejoin="round"/>
            <path id="Vector_2" d="M18.6616 14H18.6733M13.9938 14H14.0055M9.32715 14H9.33648" stroke="currentStroke"
                  stroke-width="2.5" stroke-linecap="round" stroke-linejoin="round"/>
        </g>
    </symbol>

    <symbol id="private" width="currentWidth" height="currentHeight" viewBox="0 0 64 64" fill="currentColor">
        <g>
            <path id="Vector"
                  d="M24 29.3333V26.6666C24 22.24 25.3333 18.6666 32 18.6666C38.6667 18.6666 40 22.24 40 26.6666V29.3333M32 38.9333C32.2101 38.9333 32.4182 38.8919 32.6123 38.8115C32.8064 38.7311 32.9828 38.6132 33.1314 38.4647C33.2799 38.3161 33.3978 38.1397 33.4782 37.9456C33.5586 37.7515 33.6 37.5434 33.6 37.3333C33.6 37.1232 33.5586 36.9151 33.4782 36.721C33.3978 36.5269 33.2799 36.3505 33.1314 36.2019C32.9828 36.0533 32.8064 35.9355 32.6123 35.8551C32.4182 35.7747 32.2101 35.7333 32 35.7333C31.5757 35.7333 31.1687 35.9019 30.8686 36.2019C30.5686 36.502 30.4 36.9089 30.4 37.3333C30.4 37.7576 30.5686 38.1646 30.8686 38.4647C31.1687 38.7647 31.5757 38.9333 32 38.9333Z"
                  stroke="currentStroke" stroke-width="2" stroke-linecap="round" stroke-linejoin="round"/>
            <path id="Vector_2"
                  d="M38.666 45.3334H25.3327C19.9993 45.3334 18.666 44 18.666 38.6667V36C18.666 30.6667 19.9993 29.3334 25.3327 29.3334H38.666C43.9993 29.3334 45.3327 30.6667 45.3327 36V38.6667C45.3327 44 43.9993 45.3334 38.666 45.3334Z"
                  stroke="currentStroke" stroke-width="2" stroke-linecap="round" stroke-linejoin="round"/>
            <path id="Vector_3"
                  d="M32.0006 58.6667C46.7286 58.6667 58.6673 46.728 58.6673 32C58.6673 17.272 46.7286 5.33337 32.0006 5.33337C17.2727 5.33337 5.33398 17.272 5.33398 32C5.33398 46.728 17.2727 58.6667 32.0006 58.6667Z"
                  stroke="currentStroke" stroke-width="2" stroke-linecap="round" stroke-linejoin="round"/>
        </g>
    </symbol>

    <symbol id="search" width="currentWidth" height="currentHeight" viewBox="0 0 24 24" fill="currentColor">
        <g clip-path="url(#clip0_126_13)">
            <path id="Vector"
                  d="M23.6719 20.7516L18.9984 16.0781C18.7875 15.8672 18.5016 15.75 18.2016 15.75H17.4375C18.7312 14.0953 19.5 12.0141 19.5 9.75C19.5 4.36406 15.1359 0 9.75 0C4.36406 0 0 4.36406 0 9.75C0 15.1359 4.36406 19.5 9.75 19.5C12.0141 19.5 14.0953 18.7313 15.75 17.4375V18.2016C15.75 18.5016 15.8672 18.7875 16.0781 18.9984L20.7516 23.6719C21.1922 24.1125 21.9047 24.1125 22.3406 23.6719L23.6672 22.3453C24.1078 21.9047 24.1078 21.1922 23.6719 20.7516ZM9.75 15.75C6.43594 15.75 3.75 13.0688 3.75 9.75C3.75 6.43594 6.43125 3.75 9.75 3.75C13.0641 3.75 15.75 6.43125 15.75 9.75C15.75 13.0641 13.0687 15.75 9.75 15.75Z"/>
        </g>
        <defs>
            <clipPath id="clip0_126_13">
                <rect width="currentWidth" height="currentHeight" fill="currentColor"/>
            </clipPath>
        </defs>
    </symbol>

    <symbol id="settings" width="currentWidth" height="currentHeight" viewBox="0 0 42 42" fill="currentColor">
        <g>
            <path id="Vector"
                  d="M21 26.25C22.3924 26.25 23.7277 25.6969 24.7123 24.7123C25.6969 23.7277 26.25 22.3924 26.25 21C26.25 19.6076 25.6969 18.2723 24.7123 17.2877C23.7277 16.3031 22.3924 15.75 21 15.75C19.6076 15.75 18.2723 16.3031 17.2877 17.2877C16.3031 18.2723 15.75 19.6076 15.75 21C15.75 22.3924 16.3031 23.7277 17.2877 24.7123C18.2723 25.6969 19.6076 26.25 21 26.25Z"
                  stroke="currentStroke" stroke-width="2" stroke-miterlimit="10" stroke-linecap="round"
                  stroke-linejoin="round"/>
            <path id="Vector_2"
                  d="M3.5 22.54V19.46C3.5 17.64 4.9875 16.135 6.825 16.135C9.9925 16.135 11.2875 13.895 9.695 11.1475C8.785 9.57251 9.3275 7.52501 10.92 6.61501L13.9475 4.88251C15.33 4.06001 17.115 4.55001 17.9375 5.93251L18.13 6.26501C19.705 9.01251 22.295 9.01251 23.8875 6.26501L24.08 5.93251C24.9025 4.55001 26.6875 4.06001 28.07 4.88251L31.0975 6.61501C32.69 7.52501 33.2325 9.57251 32.3225 11.1475C30.73 13.895 32.025 16.135 35.1925 16.135C37.0125 16.135 38.5175 17.6225 38.5175 19.46V22.54C38.5175 24.36 37.03 25.865 35.1925 25.865C32.025 25.865 30.73 28.105 32.3225 30.8525C33.2325 32.445 32.69 34.475 31.0975 35.385L28.07 37.1175C26.6875 37.94 24.9025 37.45 24.08 36.0675L23.8875 35.735C22.3125 32.9875 19.7225 32.9875 18.13 35.735L17.9375 36.0675C17.115 37.45 15.33 37.94 13.9475 37.1175L10.92 35.385C10.1572 34.9458 9.59977 34.2219 9.3701 33.3721C9.14044 32.5224 9.25729 31.6162 9.695 30.8525C11.2875 28.105 9.9925 25.865 6.825 25.865C4.9875 25.865 3.5 24.36 3.5 22.54Z"
                  stroke="currentStroke" stroke-width="2" stroke-miterlimit="10" stroke-linecap="round"
                  stroke-linejoin="round"/>
        </g>
    </symbol>

    <symbol id="sort_date_down" width="currentWidth" height="currentHeight" viewBox="0 0 28 28" fill="currentColor">
        <g>
            <path id="Vector"
                  d="M18.3748 5.25H19.2498V8.75H18.3748C18.1427 8.75 17.9202 8.84219 17.7561 9.00628C17.592 9.17038 17.4998 9.39294 17.4998 9.625V11.375C17.4998 11.6071 17.592 11.8296 17.7561 11.9937C17.9202 12.1578 18.1427 12.25 18.3748 12.25H23.6248C23.8569 12.25 24.0794 12.1578 24.2435 11.9937C24.4076 11.8296 24.4998 11.6071 24.4998 11.375V9.625C24.4998 9.39294 24.4076 9.17038 24.2435 9.00628C24.0794 8.84219 23.8569 8.75 23.6248 8.75H22.7498V2.625C22.7498 2.39294 22.6576 2.17038 22.4935 2.00628C22.3294 1.84219 22.1069 1.75 21.8748 1.75H19.2498C19.0876 1.75014 18.9286 1.79537 18.7906 1.88064C18.6526 1.96591 18.541 2.08787 18.4683 2.23289L17.5933 3.98289C17.5265 4.11624 17.4948 4.26446 17.5014 4.41348C17.5079 4.56249 17.5525 4.70736 17.6308 4.83432C17.7091 4.96128 17.8186 5.06611 17.9488 5.13886C18.079 5.21162 18.2256 5.24987 18.3748 5.25ZM19.8049 14.1591C19.092 14.3544 18.4411 14.7293 17.9145 15.2479C17.3879 15.7666 17.0031 16.4117 16.7971 17.1216C16.0178 19.9134 17.957 22.4684 20.5623 22.7287C20.2188 23.0185 19.8346 23.2563 19.4221 23.4347C19.0081 23.6206 18.8314 24.1166 18.9747 24.547L19.5161 25.6408C19.6731 26.1127 20.2014 26.3785 20.6591 26.1827C23.831 24.8287 25.3759 22.8134 25.3759 18.964V18.375C25.3748 15.5745 22.729 13.3798 19.806 14.1591H19.8049ZM20.9998 19.4688C20.7835 19.4688 20.572 19.4046 20.3921 19.2844C20.2123 19.1642 20.0721 18.9934 19.9893 18.7936C19.9065 18.5937 19.8849 18.3738 19.9271 18.1616C19.9693 17.9495 20.0734 17.7546 20.2264 17.6016C20.3794 17.4486 20.5743 17.3445 20.7864 17.3023C20.9986 17.2601 21.2185 17.2817 21.4184 17.3645C21.6182 17.4473 21.789 17.5875 21.9092 17.7673C22.0294 17.9472 22.0935 18.1587 22.0935 18.375C22.0935 18.6651 21.9783 18.9433 21.7732 19.1484C21.5681 19.3535 21.2899 19.4688 20.9998 19.4688ZM11.3748 19.25H8.7498V2.625C8.7498 2.39294 8.65761 2.17038 8.49352 2.00628C8.32942 1.84219 8.10686 1.75 7.8748 1.75H6.1248C5.89274 1.75 5.67018 1.84219 5.50608 2.00628C5.34199 2.17038 5.2498 2.39294 5.2498 2.625V19.25H2.6248C1.84878 19.25 1.45667 20.1928 2.00738 20.7435L6.38238 25.9935C6.54646 26.1575 6.76893 26.2496 7.00089 26.2496C7.23286 26.2496 7.45533 26.1575 7.61941 25.9935L11.9944 20.7435C12.5424 20.1939 12.1525 19.25 11.3748 19.25Z"/>
        </g>
    </symbol>

    <symbol id="sort_date_up" width="currentWidth" height="currentHeight" viewBox="0 0 28 28" fill="currentColor">
        <g>
            <path id="Vector"
                  d="M11.3748 19.25H8.7498V2.625C8.7498 2.39294 8.65761 2.17038 8.49352 2.00628C8.32942 1.84219 8.10686 1.75 7.8748 1.75H6.1248C5.89274 1.75 5.67018 1.84219 5.50608 2.00628C5.34199 2.17038 5.2498 2.39294 5.2498 2.625V19.25H2.6248C1.84878 19.25 1.45667 20.1928 2.00738 20.7435L6.38238 25.9935C6.54646 26.1575 6.76893 26.2496 7.00089 26.2496C7.23286 26.2496 7.45533 26.1575 7.61941 25.9935L11.9944 20.7435C12.5424 20.1939 12.1525 19.25 11.3748 19.25ZM23.6248 22.75H22.7498V16.625C22.7498 16.3929 22.6576 16.1704 22.4935 16.0063C22.3294 15.8422 22.1069 15.75 21.8748 15.75H19.2498C19.0876 15.7501 18.9286 15.7954 18.7906 15.8806C18.6526 15.9659 18.541 16.0879 18.4683 16.2329L17.5933 17.9829C17.5265 18.1162 17.4948 18.2645 17.5014 18.4135C17.5079 18.5625 17.5525 18.7074 17.6308 18.8343C17.7091 18.9613 17.8186 19.0661 17.9488 19.1389C18.079 19.2116 18.2256 19.2499 18.3748 19.25H19.2498V22.75H18.3748C18.1427 22.75 17.9202 22.8422 17.7561 23.0063C17.592 23.1704 17.4998 23.3929 17.4998 23.625V25.375C17.4998 25.6071 17.592 25.8296 17.7561 25.9937C17.9202 26.1578 18.1427 26.25 18.3748 26.25H23.6248C23.8569 26.25 24.0794 26.1578 24.2435 25.9937C24.4076 25.8296 24.4998 25.6071 24.4998 25.375V23.625C24.4998 23.3929 24.4076 23.1704 24.2435 23.0063C24.0794 22.8422 23.8569 22.75 23.6248 22.75ZM19.806 1.90914C19.0931 2.10439 18.4422 2.47927 17.9156 2.99794C17.389 3.51661 17.0042 4.16172 16.7982 4.87156C16.0178 7.66336 17.957 10.2184 20.5623 10.4787C20.2188 10.7685 19.8346 11.0063 19.4221 11.1847C19.0081 11.3706 18.8314 11.8666 18.9747 12.297L19.5161 13.3908C19.6731 13.8627 20.2014 14.1285 20.6591 13.9327C23.831 12.5781 25.3759 10.5634 25.3759 6.71398V6.125C25.3748 3.32445 22.729 1.12984 19.806 1.90914ZM20.9998 7.21875C20.7835 7.21875 20.572 7.1546 20.3921 7.03442C20.2123 6.91424 20.0721 6.74342 19.9893 6.54356C19.9065 6.3437 19.8849 6.12379 19.9271 5.91162C19.9693 5.69945 20.0734 5.50457 20.2264 5.3516C20.3794 5.19864 20.5743 5.09447 20.7864 5.05227C20.9986 5.01006 21.2185 5.03172 21.4184 5.11451C21.6182 5.19729 21.789 5.33748 21.9092 5.51734C22.0294 5.69721 22.0935 5.90868 22.0935 6.125C22.0935 6.41508 21.9783 6.69328 21.7732 6.8984C21.5681 7.10352 21.2899 7.21875 20.9998 7.21875Z"/>
        </g>
    </symbol>

    <symbol id="sort_title_down" width="currentWidth" height="currentHeight" viewBox="0 0 28 28" fill="currentColor">
        <g>
            <path id="Vector"
                  d="M11.3748 19.25H8.7498V2.625C8.7498 2.39294 8.65761 2.17038 8.49352 2.00628C8.32942 1.84219 8.10686 1.75 7.8748 1.75H6.1248C5.89274 1.75 5.67018 1.84219 5.50608 2.00628C5.34199 2.17038 5.2498 2.39294 5.2498 2.625V19.25H2.6248C1.84878 19.25 1.45667 20.1928 2.00738 20.7435L6.38238 25.9935C6.54646 26.1575 6.76893 26.2496 7.00089 26.2496C7.23286 26.2496 7.45533 26.1575 7.61941 25.9935L11.9944 20.7435C12.5424 20.1939 12.1525 19.25 11.3748 19.25ZM24.4998 15.75H17.4998C17.2677 15.75 17.0452 15.8422 16.8811 16.0063C16.717 16.1704 16.6248 16.3929 16.6248 16.625V18.375C16.6248 18.6071 16.717 18.8296 16.8811 18.9937C17.0452 19.1578 17.2677 19.25 17.4998 19.25H20.5623L17.2121 23.1027C17.0274 23.2669 16.8796 23.4684 16.7783 23.6939C16.6771 23.9193 16.6248 24.1637 16.6248 24.4109V25.375C16.6248 25.6071 16.717 25.8296 16.8811 25.9937C17.0452 26.1578 17.2677 26.25 17.4998 26.25H24.4998C24.7319 26.25 24.9544 26.1578 25.1185 25.9937C25.2826 25.8296 25.3748 25.6071 25.3748 25.375V23.625C25.3748 23.3929 25.2826 23.1704 25.1185 23.0063C24.9544 22.8422 24.7319 22.75 24.4998 22.75H21.4373L24.7875 18.8973C24.9722 18.7331 25.12 18.5316 25.2213 18.3061C25.3225 18.0807 25.3748 17.8363 25.3748 17.5891V16.625C25.3748 16.3929 25.2826 16.1704 25.1185 16.0063C24.9544 15.8422 24.7319 15.75 24.4998 15.75ZM26.1984 11.0808L22.9571 2.33078C22.8964 2.16079 22.7846 2.01373 22.6371 1.90976C22.4895 1.80578 22.3134 1.74998 22.1329 1.75H19.8667C19.6862 1.74998 19.5101 1.80578 19.3625 1.90976C19.215 2.01373 19.1032 2.16079 19.0425 2.33078L15.8012 11.0808C15.7541 11.2128 15.7393 11.3542 15.7583 11.4931C15.7772 11.632 15.8292 11.7643 15.9099 11.8789C15.9906 11.9935 16.0977 12.087 16.2221 12.1516C16.3465 12.2162 16.4846 12.2499 16.6248 12.25H17.9827C18.1678 12.2501 18.3481 12.1914 18.4977 12.0826C18.6474 11.9737 18.7587 11.8202 18.8156 11.6441L19.0573 10.9375H22.9401L23.1813 11.6441C23.2383 11.8205 23.3499 11.9743 23.5 12.0832C23.6501 12.1921 23.8309 12.2505 24.0164 12.25H25.3748C25.515 12.2499 25.6531 12.2162 25.7775 12.1516C25.9019 12.087 26.009 11.9935 26.0897 11.8789C26.1704 11.7643 26.2224 11.632 26.2413 11.4931C26.2603 11.3542 26.2455 11.2128 26.1984 11.0808ZM20.1035 7.875L20.9998 5.25L21.8961 7.875H20.1035Z"/>
        </g>
    </symbol>

    <symbol id="sort_title_up" width="currentWidth" height="currentHeight" viewBox="0 0 28 28" fill="currentColor">
        <g>
            <path id="Vector"
                  d="M11.3748 19.25H8.7498V2.625C8.7498 2.39294 8.65761 2.17038 8.49352 2.00628C8.32942 1.84219 8.10686 1.75 7.8748 1.75H6.1248C5.89274 1.75 5.67018 1.84219 5.50608 2.00628C5.34199 2.17038 5.2498 2.39294 5.2498 2.625V19.25H2.6248C1.84878 19.25 1.45667 20.1928 2.00738 20.7435L6.38238 25.9935C6.54646 26.1575 6.76893 26.2496 7.00089 26.2496C7.23286 26.2496 7.45533 26.1575 7.61941 25.9935L11.9944 20.7435C12.5424 20.1939 12.1525 19.25 11.3748 19.25ZM17.4998 12.25H24.4998C24.7319 12.25 24.9544 12.1578 25.1185 11.9937C25.2826 11.8296 25.3748 11.6071 25.3748 11.375V9.625C25.3748 9.39294 25.2826 9.17038 25.1185 9.00628C24.9544 8.84219 24.7319 8.75 24.4998 8.75H21.4373L24.7875 4.89727C24.9722 4.73306 25.12 4.53159 25.2213 4.30612C25.3225 4.08065 25.3748 3.8363 25.3748 3.58914V2.625C25.3748 2.39294 25.2826 2.17038 25.1185 2.00628C24.9544 1.84219 24.7319 1.75 24.4998 1.75H17.4998C17.2677 1.75 17.0452 1.84219 16.8811 2.00628C16.717 2.17038 16.6248 2.39294 16.6248 2.625V4.375C16.6248 4.60706 16.717 4.82962 16.8811 4.99372C17.0452 5.15781 17.2677 5.25 17.4998 5.25H20.5623L17.2121 9.10273C17.0274 9.26694 16.8796 9.46841 16.7783 9.69388C16.6771 9.91935 16.6248 10.1637 16.6248 10.4109V11.375C16.6248 11.6071 16.717 11.8296 16.8811 11.9937C17.0452 12.1578 17.2677 12.25 17.4998 12.25ZM26.1984 25.0808L22.9571 16.3308C22.8964 16.1608 22.7846 16.0137 22.6371 15.9098C22.4895 15.8058 22.3134 15.75 22.1329 15.75H19.8667C19.6862 15.75 19.5101 15.8058 19.3625 15.9098C19.215 16.0137 19.1032 16.1608 19.0425 16.3308L15.8012 25.0808C15.7541 25.2128 15.7393 25.3542 15.7583 25.4931C15.7772 25.632 15.8292 25.7643 15.9099 25.8789C15.9906 25.9935 16.0977 26.087 16.2221 26.1516C16.3465 26.2162 16.4846 26.2499 16.6248 26.25H17.9827C18.1678 26.2501 18.3481 26.1914 18.4977 26.0826C18.6474 25.9737 18.7587 25.8202 18.8156 25.6441L19.0573 24.9375H22.9401L23.1813 25.6441C23.2383 25.8205 23.3499 25.9743 23.5 26.0832C23.6501 26.1921 23.8309 26.2505 24.0164 26.25H25.3748C25.515 26.2499 25.6531 26.2162 25.7775 26.1516C25.9019 26.087 26.009 25.9935 26.0897 25.8789C26.1704 25.7643 26.2224 25.632 26.2413 25.4931C26.2603 25.3542 26.2455 25.2128 26.1984 25.0808ZM20.1035 21.875L20.9998 19.25L21.8961 21.875H20.1035Z"/>
        </g>
    </symbol>

    <symbol id="sort_views_down" width="currentWidth" height="currentHeight" viewBox="0 0 28 28" fill="currentColor">
        <g clip-path="url(#clip0_126_38)">
            <path id="Vector"
                  d="M16.625 22.75H13.125C12.893 22.75 12.6704 22.8422 12.5063 23.0063C12.3422 23.1704 12.25 23.3929 12.25 23.625V25.375C12.25 25.6071 12.3422 25.8296 12.5063 25.9937C12.6704 26.1578 12.893 26.25 13.125 26.25H16.625C16.8571 26.25 17.0797 26.1578 17.2438 25.9937C17.4079 25.8296 17.5 25.6071 17.5 25.375V23.625C17.5 23.3929 17.4079 23.1704 17.2438 23.0063C17.0797 22.8422 16.8571 22.75 16.625 22.75ZM9.62504 19.25H7.00004V2.625C7.00004 2.39294 6.90785 2.17038 6.74376 2.00628C6.57967 1.84219 6.35711 1.75 6.12504 1.75H4.37504C4.14298 1.75 3.92042 1.84219 3.75632 2.00628C3.59223 2.17038 3.50004 2.39294 3.50004 2.625V19.25H0.875042C0.0990265 19.25 -0.29363 20.1928 0.25762 20.7435L4.63262 25.9935C4.7967 26.1575 5.01917 26.2496 5.25114 26.2496C5.4831 26.2496 5.70557 26.1575 5.86965 25.9935L10.2447 20.7435C10.7926 20.1939 10.4027 19.25 9.62504 19.25ZM23.625 8.75H13.125C12.893 8.75 12.6704 8.84219 12.5063 9.00628C12.3422 9.17038 12.25 9.39294 12.25 9.625V11.375C12.25 11.6071 12.3422 11.8296 12.5063 11.9937C12.6704 12.1578 12.893 12.25 13.125 12.25H23.625C23.8571 12.25 24.0797 12.1578 24.2438 11.9937C24.4079 11.8296 24.5 11.6071 24.5 11.375V9.625C24.5 9.39294 24.4079 9.17038 24.2438 9.00628C24.0797 8.84219 23.8571 8.75 23.625 8.75ZM20.125 15.75H13.125C12.893 15.75 12.6704 15.8422 12.5063 16.0063C12.3422 16.1704 12.25 16.3929 12.25 16.625V18.375C12.25 18.6071 12.3422 18.8296 12.5063 18.9937C12.6704 19.1578 12.893 19.25 13.125 19.25H20.125C20.3571 19.25 20.5797 19.1578 20.7438 18.9937C20.9079 18.8296 21 18.6071 21 18.375V16.625C21 16.3929 20.9079 16.1704 20.7438 16.0063C20.5797 15.8422 20.3571 15.75 20.125 15.75ZM27.125 1.75H13.125C12.893 1.75 12.6704 1.84219 12.5063 2.00628C12.3422 2.17038 12.25 2.39294 12.25 2.625V4.375C12.25 4.60706 12.3422 4.82962 12.5063 4.99372C12.6704 5.15781 12.893 5.25 13.125 5.25H27.125C27.3571 5.25 27.5797 5.15781 27.7438 4.99372C27.9079 4.82962 28 4.60706 28 4.375V2.625C28 2.39294 27.9079 2.17038 27.7438 2.00628C27.5797 1.84219 27.3571 1.75 27.125 1.75Z"/>
        </g>
        <defs>
            <clipPath id="clip0_126_38">
                <rect width="currentWidth" height="currentHeight" fill="currentColor"/>
            </clipPath>
        </defs>
    </symbol>

    <symbol id="sort_views_up" width="currentWidth" height="currentHeight" viewBox="0 0 28 28" fill="currentColor">
        <g clip-path="url(#clip0_126_40)">
            <path id="Vector"
                  d="M13.125 5.25H16.625C16.8571 5.25 17.0797 5.15781 17.2438 4.99372C17.4079 4.82962 17.5 4.60706 17.5 4.375V2.625C17.5 2.39294 17.4079 2.17038 17.2438 2.00628C17.0797 1.84219 16.8571 1.75 16.625 1.75H13.125C12.893 1.75 12.6704 1.84219 12.5063 2.00628C12.3422 2.17038 12.25 2.39294 12.25 2.625V4.375C12.25 4.60706 12.3422 4.82962 12.5063 4.99372C12.6704 5.15781 12.893 5.25 13.125 5.25ZM13.125 12.25H20.125C20.3571 12.25 20.5797 12.1578 20.7438 11.9937C20.9079 11.8296 21 11.6071 21 11.375V9.625C21 9.39294 20.9079 9.17038 20.7438 9.00628C20.5797 8.84219 20.3571 8.75 20.125 8.75H13.125C12.893 8.75 12.6704 8.84219 12.5063 9.00628C12.3422 9.17038 12.25 9.39294 12.25 9.625V11.375C12.25 11.6071 12.3422 11.8296 12.5063 11.9937C12.6704 12.1578 12.893 12.25 13.125 12.25ZM27.125 22.75H13.125C12.893 22.75 12.6704 22.8422 12.5063 23.0063C12.3422 23.1704 12.25 23.3929 12.25 23.625V25.375C12.25 25.6071 12.3422 25.8296 12.5063 25.9937C12.6704 26.1578 12.893 26.25 13.125 26.25H27.125C27.3571 26.25 27.5797 26.1578 27.7438 25.9937C27.9079 25.8296 28 25.6071 28 25.375V23.625C28 23.3929 27.9079 23.1704 27.7438 23.0063C27.5797 22.8422 27.3571 22.75 27.125 22.75ZM13.125 19.25H23.625C23.8571 19.25 24.0797 19.1578 24.2438 18.9937C24.4079 18.8296 24.5 18.6071 24.5 18.375V16.625C24.5 16.3929 24.4079 16.1704 24.2438 16.0063C24.0797 15.8422 23.8571 15.75 23.625 15.75H13.125C12.893 15.75 12.6704 15.8422 12.5063 16.0063C12.3422 16.1704 12.25 16.3929 12.25 16.625V18.375C12.25 18.6071 12.3422 18.8296 12.5063 18.9937C12.6704 19.1578 12.893 19.25 13.125 19.25ZM9.62504 19.25H7.00004V2.625C7.00004 2.39294 6.90785 2.17038 6.74376 2.00628C6.57967 1.84219 6.35711 1.75 6.12504 1.75H4.37504C4.14298 1.75 3.92042 1.84219 3.75632 2.00628C3.59223 2.17038 3.50004 2.39294 3.50004 2.625V19.25H0.875042C0.0990265 19.25 -0.29363 20.1928 0.25762 20.7435L4.63262 25.9935C4.7967 26.1575 5.01917 26.2496 5.25114 26.2496C5.4831 26.2496 5.70557 26.1575 5.86965 25.9935L10.2447 20.7435C10.7926 20.1939 10.4027 19.25 9.62504 19.25Z"/>
        </g>
        <defs>
            <clipPath id="clip0_126_40">
                <rect width="currentWidth" height="currentHeight" fill="currentColor"/>
            </clipPath>
        </defs>
    </symbol>

    <symbol id="star" width="currentWidth" height="currentHeight" viewBox="0 0 32 32" fill="currentColor">
        <g>
            <path id="Vector"
                  d="M18.3085 4.68002L20.6552 9.37335C20.9752 10.0267 21.8285 10.6534 22.5485 10.7734L26.8018 11.48C29.5218 11.9334 30.1618 13.9067 28.2018 15.8534L24.8952 19.16C24.3352 19.72 24.0285 20.8 24.2018 21.5734L25.1485 25.6667C25.8952 28.9067 24.1752 30.16 21.3085 28.4667L17.3218 26.1067C16.6018 25.68 15.4152 25.68 14.6818 26.1067L10.6952 28.4667C7.84183 30.16 6.1085 28.8934 6.85517 25.6667L7.80183 21.5734C7.97517 20.8 7.6685 19.72 7.1085 19.16L3.80183 15.8534C1.85517 13.9067 2.48183 11.9334 5.20183 11.48L9.45517 10.7734C10.1618 10.6534 11.0152 10.0267 11.3352 9.37335L13.6818 4.68002C14.9618 2.13335 17.0418 2.13335 18.3085 4.68002Z"
                  stroke="currentStroke" stroke-width="1.5" stroke-linecap="round" stroke-linejoin="round"/>
        </g>
    </symbol>

    <symbol id="telegram" width="currentWidth" height="currentHeight" viewBox="0 0 24 24" fill="currentColor">
        <g clip-path="url(#clip0_107_271)">
            <path id="Vector"
                  d="M12 0.375C5.57812 0.375 0.375 5.57812 0.375 12C0.375 18.4219 5.57812 23.625 12 23.625C18.4219 23.625 23.625 18.4219 23.625 12C23.625 5.57812 18.4219 0.375 12 0.375ZM17.7094 8.33906L15.8016 17.3297C15.6609 17.9672 15.2813 18.1219 14.7516 17.8219L11.8453 15.6797L10.4438 17.0297C10.2891 17.1844 10.1578 17.3156 9.85781 17.3156L10.0641 14.3578L15.45 9.49219C15.6844 9.28594 15.3984 9.16875 15.0891 9.375L8.43281 13.5656L5.56406 12.6703C4.94062 12.4734 4.92656 12.0469 5.69531 11.7469L16.9031 7.425C17.4234 7.2375 17.8781 7.55156 17.7094 8.33906Z"/>
        </g>
        <defs>
            <clipPath id="clip0_107_271">
                <rect width="currentWidth" height="currentHeight" fill="currentColor"/>
            </clipPath>
        </defs>
    </symbol>

    <symbol id="trash" width="currentWidth" height="currentHeight" viewBox="0 0 28 28" fill="currentColor">
        <g>
            <path id="Vector"
                  d="M24.5 6.97659C20.615 6.59159 16.7067 6.39325 12.81 6.39325C10.5 6.39325 8.19 6.50992 5.88 6.74325L3.5 6.97659M9.91667 5.79825L10.1733 4.26992C10.36 3.16159 10.5 2.33325 12.4717 2.33325H15.5283C17.5 2.33325 17.6517 3.20825 17.8267 4.28159L18.0833 5.79825M21.9917 10.6633L21.2333 22.4116C21.105 24.2433 21 25.6666 17.745 25.6666H10.255C7 25.6666 6.895 24.2433 6.76667 22.4116L6.00833 10.6633M12.0517 19.2499H15.9367M11.0833 14.5833H16.9167"
                  stroke="currentStroke" stroke-width="1.5" stroke-linecap="round" stroke-linejoin="round"/>
        </g>
    </symbol>

    <symbol id="list_style_item" width="currentWidth" height="currentHeight" viewBox="0 0 24 24" fill="currentColor">
        <g>
            <path id="Vector"
                  d="M20.9498 14.55L14.5598 20.94C13.1598 22.34 10.8598 22.34 9.44977 20.94L3.05977 14.55C1.65977 13.15 1.65977 10.85 3.05977 9.44L9.44977 3.05C10.8498 1.65 13.1498 1.65 14.5598 3.05L20.9498 9.44C22.3498 10.85 22.3498 13.15 20.9498 14.55Z"
                  stroke="currentStroke" stroke-width="1.5" stroke-linecap="round" stroke-linejoin="round"/>
        </g>
    </symbol>

    <symbol id="user_about" width="currentWidth" height="currentHeight" viewBox="0 0 24 24" fill="currentColor">
        <g>
            <path id="Vector"
                  d="M12 12C13.3261 12 14.5979 11.4732 15.5355 10.5355C16.4732 9.59785 17 8.32608 17 7C17 5.67392 16.4732 4.40215 15.5355 3.46447C14.5979 2.52678 13.3261 2 12 2C10.6739 2 9.40215 2.52678 8.46447 3.46447C7.52678 4.40215 7 5.67392 7 7C7 8.32608 7.52678 9.59785 8.46447 10.5355C9.40215 11.4732 10.6739 12 12 12Z"
                  stroke="currentStroke" stroke-width="1.5" stroke-linecap="round" stroke-linejoin="round"/>
            <path id="Vector_2"
                  d="M19.211 15.74L15.671 19.28C15.531 19.42 15.401 19.68 15.371 19.87L15.181 21.22C15.111 21.71 15.451 22.05 15.941 21.98L17.291 21.79C17.481 21.76 17.751 21.63 17.881 21.49L21.421 17.95C22.031 17.34 22.321 16.63 21.421 15.73C20.531 14.84 19.821 15.13 19.211 15.74Z"
                  stroke="currentStroke" stroke-width="1.5" stroke-miterlimit="10" stroke-linecap="round"
                  stroke-linejoin="round"/>
            <path id="Vector_3" d="M18.6992 16.25C18.9992 17.33 19.8392 18.17 20.9192 18.47" stroke="currentStroke"
                  stroke-width="1.5" stroke-miterlimit="10" stroke-linecap="round" stroke-linejoin="round"/>
            <path id="Vector_4"
                  d="M3.41016 22C3.41016 18.13 7.26016 15 12.0002 15C13.0402 15 14.0402 15.15 14.9702 15.43"
                  stroke="currentStroke" stroke-width="1.5" stroke-linecap="round" stroke-linejoin="round"/>
        </g>
    </symbol>

    <symbol id="user_privacy" width="currentWidth" height="currentHeight" viewBox="0 0 24 24" fill="currentColor">
        <g>
            <path id="Vector"
                  d="M10.4902 2.23L5.50016 4.1C4.35016 4.53 3.41016 5.89 3.41016 7.12V14.55C3.41016 15.73 4.19016 17.28 5.14016 17.99L9.44016 21.2C10.8502 22.26 13.1702 22.26 14.5802 21.2L18.8802 17.99C19.8302 17.28 20.6102 15.73 20.6102 14.55V7.12C20.6102 5.89 19.6702 4.53 18.5202 4.1L13.5302 2.23C12.6802 1.92 11.3202 1.92 10.4902 2.23Z"
                  stroke="currentStroke" stroke-width="1.5" stroke-linecap="round" stroke-linejoin="round"/>
            <path id="Vector_2"
                  d="M11.9991 10.92H11.8691C10.9291 10.89 10.1791 10.11 10.1791 9.16002C10.1791 8.19002 10.9691 7.40002 11.9391 7.40002C12.9091 7.40002 13.6991 8.19002 13.6991 9.16002C13.6891 10.12 12.9391 10.89 11.9991 10.92ZM10.0091 13.72C9.04906 14.36 9.04906 15.41 10.0091 16.05C11.0991 16.78 12.8891 16.78 13.9791 16.05C14.9391 15.41 14.9391 14.36 13.9791 13.72C12.8991 12.99 11.1091 12.99 10.0091 13.72Z"
                  stroke="currentStroke" stroke-width="1.5" stroke-linecap="round" stroke-linejoin="round"/>
        </g>
    </symbol>

    <symbol id="user_setups" width="currentWidth" height="currentHeight" viewBox="0 0 24 24" fill="currentColor">
        <g>
            <path id="Vector"
                  d="M3 9.10998V14.88C3 17 3 17 5 18.35L10.5 21.53C11.33 22.01 12.68 22.01 13.5 21.53L19 18.35C21 17 21 17 21 14.89V9.10998C21 6.99998 21 6.99999 19 5.64999L13.5 2.46999C12.68 1.98999 11.33 1.98999 10.5 2.46999L5 5.64999C3 6.99999 3 6.99998 3 9.10998Z"
                  stroke="currentStroke" stroke-width="1.5" stroke-linecap="round" stroke-linejoin="round"/>
            <path id="Vector_2"
                  d="M12 15C12.7956 15 13.5587 14.6839 14.1213 14.1213C14.6839 13.5587 15 12.7956 15 12C15 11.2044 14.6839 10.4413 14.1213 9.87868C13.5587 9.31607 12.7956 9 12 9C11.2044 9 10.4413 9.31607 9.87868 9.87868C9.31607 10.4413 9 11.2044 9 12C9 12.7956 9.31607 13.5587 9.87868 14.1213C10.4413 14.6839 11.2044 15 12 15Z"
                  stroke="currentStroke" stroke-width="1.5" stroke-linecap="round" stroke-linejoin="round"/>
        </g>
    </symbol>

    <symbol id="views" width="currentWidth" height="currentHeight" viewBox="0 0 16 16" fill="currentColor">
        <path d="M15.9033 7.5944C14.3969 4.65524 11.4147 2.66663 7.99998 2.66663C4.58526 2.66663 1.60221 4.65663 0.0966515 7.59468C0.0331076 7.72038 0 7.85925 0 8.0001C0 8.14094 0.0331076 8.27982 0.0966515 8.40551C1.60304 11.3447 4.58526 13.3333 7.99998 13.3333C11.4147 13.3333 14.3978 11.3433 15.9033 8.40524C15.9669 8.27954 16 8.14067 16 7.99982C16 7.85897 15.9669 7.7201 15.9033 7.5944ZM7.99998 12C7.20886 12 6.4355 11.7654 5.7777 11.3258C5.11991 10.8863 4.60722 10.2616 4.30447 9.53069C4.00172 8.79979 3.9225 7.99552 4.07684 7.2196C4.23118 6.44367 4.61215 5.73094 5.17156 5.17153C5.73097 4.61212 6.4437 4.23116 7.21962 4.07682C7.99555 3.92248 8.79981 4.00169 9.53072 4.30444C10.2616 4.60719 10.8863 5.11988 11.3259 5.77768C11.7654 6.43547 12 7.20883 12 7.99996C12.0002 8.52532 11.897 9.04558 11.696 9.531C11.4951 10.0164 11.2005 10.4575 10.829 10.829C10.4575 11.2004 10.0164 11.4951 9.53102 11.696C9.0456 11.8969 8.52534 12.0002 7.99998 12ZM7.99998 5.33329C7.76197 5.33662 7.52548 5.37203 7.29693 5.43857C7.48532 5.69459 7.57573 6.00965 7.55175 6.32661C7.52777 6.64357 7.391 6.94144 7.16623 7.16621C6.94147 7.39097 6.6436 7.52775 6.32664 7.55173C6.00968 7.5757 5.69462 7.4853 5.4386 7.2969C5.29281 7.83401 5.31913 8.40331 5.51384 8.92468C5.70856 9.44605 6.06187 9.89323 6.52404 10.2033C6.98622 10.5133 7.53399 10.6706 8.09025 10.6531C8.64652 10.6355 9.18327 10.4439 9.62495 10.1053C10.0666 9.76672 10.391 9.29813 10.5524 8.76551C10.7139 8.23289 10.7042 7.66306 10.5248 7.13623C10.3454 6.60939 10.0053 6.15208 9.55238 5.82866C9.09946 5.50523 8.55653 5.33198 7.99998 5.33329Z"/>
    </symbol>

    <symbol id="warning" width="currentWidth" height="currentHeight" viewBox="0 0 42 42" fill="currentColor">
        <path d="M20.9998 13.5625V22.75M36.8898 15.015V26.985C36.8898 28.945 35.8398 30.765 34.1423 31.7625L23.7473 37.765C22.0498 38.745 19.9498 38.745 18.2348 37.765L7.83979 31.7625C7.00289 31.2773 6.30843 30.5803 5.82615 29.7417C5.34388 28.9031 5.09078 27.9524 5.09229 26.985V15.015C5.09229 13.055 6.14229 11.235 7.83979 10.2375L18.2348 4.235C19.9323 3.255 22.0323 3.255 23.7473 4.235L34.1423 10.2375C35.8398 11.235 36.8898 13.0375 36.8898 15.015Z"
              stroke="currentStroke" stroke-width="2" stroke-linecap="round" stroke-linejoin="round"/>
        <path d="M21 28.35V28.525" stroke="currentStroke" stroke-width="2" stroke-linecap="round"
              stroke-linejoin="round"/>
    </symbol>

    <symbol id="website_link" width="currentWidth" height="currentHeight" viewBox="0 0 16 16" fill="currentColor">
        <path d="M9.65498 6.34511C11.0553 7.74688 11.0361 9.99427 9.66342 11.3745C9.66084 11.3774 9.65779 11.3804 9.65498 11.3832L8.07998 12.9582C6.69084 14.3474 4.43079 14.3472 3.04186 12.9582C1.65271 11.5693 1.65271 9.30901 3.04186 7.9201L3.91153 7.05043C4.14215 6.81981 4.53932 6.97309 4.55123 7.29901C4.56642 7.71437 4.6409 8.13167 4.77834 8.53466C4.82489 8.67111 4.79163 8.82205 4.68968 8.924L4.38295 9.23072C3.72609 9.88758 3.70549 10.9571 4.35588 11.6204C5.01269 12.2902 6.09227 12.2942 6.75412 11.6324L8.32912 10.0576C8.98985 9.39687 8.98708 8.32892 8.32912 7.67096C8.24238 7.58438 8.15501 7.51712 8.08676 7.47013C8.03847 7.43697 7.99861 7.39299 7.97034 7.34169C7.94207 7.2904 7.92618 7.2332 7.92394 7.17467C7.91465 6.92701 8.0024 6.6718 8.19811 6.4761L8.69156 5.98262C8.82096 5.85322 9.02395 5.83733 9.174 5.94205C9.34583 6.06204 9.50678 6.19691 9.65498 6.34511ZM12.9581 3.04178C11.5692 1.65283 9.30916 1.65265 7.92002 3.04178L6.34502 4.61678C6.34221 4.61959 6.33916 4.62264 6.33658 4.62545C4.96394 6.00573 4.9447 8.25312 6.34502 9.6549C6.49321 9.80308 6.65415 9.93795 6.82598 10.0579C6.97603 10.1626 7.17904 10.1467 7.30842 10.0174L7.80187 9.52388C7.99758 9.32818 8.08533 9.07297 8.07604 8.8253C8.0738 8.76678 8.05791 8.70958 8.02964 8.65828C8.00137 8.60699 7.96151 8.56301 7.91322 8.52985C7.84497 8.48286 7.7576 8.41559 7.67086 8.32901C7.0129 7.67106 7.01013 6.6031 7.67086 5.94238L9.24586 4.36762C9.90771 3.70577 10.9873 3.70975 11.6441 4.37957C12.2945 5.04285 12.2739 6.11239 11.617 6.76925L11.3103 7.07598C11.2084 7.17793 11.1751 7.32887 11.2216 7.46532C11.3591 7.86831 11.4336 8.28561 11.4487 8.70097C11.4607 9.02689 11.8578 9.18017 12.0885 8.94955L12.9581 8.07987C14.3473 6.69099 14.3473 4.43069 12.9581 3.04178Z"/>
    </symbol>

    <symbol id="default_avatar" width="currentWidth" height="currentHeight" viewBox="0 0 64 64" fill="none">
        <path d="M32 1C14.875 1 1 14.875 1 32C1 49.125 14.875 63 32 63C49.125 63 63 49.125 63 32C63 14.875 49.125 1 32 1ZM32 13C38.075 13 43 17.925 43 24C43 30.075 38.075 35 32 35C25.925 35 21 30.075 21 24C21 17.925 25.925 13 32 13ZM32 56C24.6625 56 18.0875 52.675 13.6875 47.475C16.0375 43.05 20.6375 40 26 40C26.3 40 26.6 40.05 26.8875 40.1375C28.5125 40.6625 30.2125 41 32 41C33.7875 41 35.5 40.6625 37.1125 40.1375C37.4 40.05 37.7 40 38 40C43.3625 40 47.9625 43.05 50.3125 47.475C45.9125 52.675 39.3375 56 32 56Z"
              fill="currentColor"/>
    </symbol>
</svg>
