<svg width="42" height="42" viewBox="0 0 42 42" fill="none" xmlns="http://www.w3.org/2000/svg">
<path d="M20.9998 13.5625V22.75M36.8898 15.015V26.985C36.8898 28.945 35.8398 30.765 34.1423 31.7625L23.7473 37.765C22.0498 38.745 19.9498 38.745 18.2348 37.765L7.83979 31.7625C7.00289 31.2773 6.30843 30.5803 5.82615 29.7417C5.34388 28.9031 5.09078 27.9524 5.09229 26.985V15.015C5.09229 13.055 6.14229 11.235 7.83979 10.2375L18.2348 4.235C19.9323 3.255 22.0323 3.255 23.7473 4.235L34.1423 10.2375C35.8398 11.235 36.8898 13.0375 36.8898 15.015Z" stroke="white" stroke-width="2" stroke-linecap="round" stroke-linejoin="round"/>
<path d="M21 28.35V28.525" stroke="white" stroke-width="2" stroke-linecap="round" stroke-linejoin="round"/>
</svg>
